<svg width="503" height="511" fill="none" xmlns="http://www.w3.org/2000/svg"><g opacity=".3" fill="#fff"><path d="M502.263 483.846c-20.106-7.078-38.571-17.548-56.403-27.66-18.591-10.533-37.898-21.424-58.594-28.25-36.339-11.923-85.858-21.803-135.84-27.112-22.612-2.401-43.939 5.688-64.572 13.504-26.991 10.238-54.909 20.813-85.69 7.794-24.633-10.427-38.297-31.81-51.498-52.496-12.864-20.14-26.17-40.953-49.666-51.97l.905-1.917c24.044 11.291 37.518 32.357 50.53 52.665 13.643 21.361 26.507 41.521 50.529 51.675 30.002 12.64 56.299 2.738 84.216-7.795 20.844-7.92 42.424-16.094 65.541-13.629 50.108 5.308 99.796 15.23 136.261 27.196 21.054 6.889 40.298 17.822 58.951 28.418 17.77 10.07 36.129 20.476 56.067 27.512l-.737 2.065Z"/><path d="M489.041 437.88c-15.516-6.32-27.159-14.578-38.444-22.583-15.328-10.891-29.813-21.193-52.761-26.059A687.017 687.017 0 0 0 263.89 375.65c-15.011 0-29.917.927-44.339 1.896-41.666 2.76-81.037 5.372-122.113-15.378-12.633-6.32-23.812-18.159-34.676-29.492-14.885-15.631-30.276-31.768-49.224-34.085l.273-2.107c19.686 2.402 35.329 18.833 50.53 34.717 10.737 11.27 21.854 22.92 34.107 29.113 40.634 20.519 79.711 17.927 121.082 15.168 14.464-.969 29.475-2.107 44.487-1.896a688.095 688.095 0 0 1 134.387 13.63c23.37 4.971 38.023 15.378 53.54 26.417 11.18 7.941 22.738 16.136 38.024 22.33l-.927 1.917Z"/><path d="M479.356 390.944c-6.547-4.339-12.274-8.426-17.811-12.407-22.549-16.116-38.845-27.744-74.468-28.735-15.475-.421-30.802 2.318-45.624 4.951-13.706 2.444-27.896 4.972-42.213 4.993h-.379c-61.393 0-130.198-25.891-183.317-48.452a264.413 264.413 0 0 1-24.675-12.83c-21.054-11.923-45.077-25.447-67.373-21.171l-.4-2.107c23.16-4.424 47.414 9.29 68.868 21.403a255.166 255.166 0 0 0 24.464 12.64c100.47 42.701 150.283 48.305 182.391 48.305h.484c14.127 0 28.233-2.528 41.855-4.972 14.906-2.654 30.318-5.414 46.045-4.972 36.276 1.012 52.782 12.809 75.626 29.135 5.516 3.939 11.243 8.026 17.748 12.345l-1.221 1.874Z"/><path d="M331.81 344.599c-18.254 0-42.445-10.386-62.172-18.959-7.306-3.139-14.211-6.089-20.128-8.258-38.507-14.072-77.099-29.893-114.407-45.208l-15.538-6.32c-3.579-1.475-7.284-3.076-11.053-4.719-25.033-10.912-53.393-23.278-77.289-6.425l-1.221-1.727c24.886-17.527 53.814-4.909 79.352 6.214 3.748 1.643 7.432 3.244 11.011 4.719l15.538 6.32c37.287 15.315 75.794 31.135 114.323 45.187 5.98 2.106 12.906 5.161 20.233 8.3 21.054 9.058 47.35 20.307 65.415 18.496 13.537-1.391 23.159-8.68 33.433-16.411 8.422-6.32 17.222-13.019 28.528-16.242 33.687-9.669 57.309 10.154 75.9 30.82l-1.558 1.411c-19.075-21.192-41.224-39.52-73.689-30.209-10.906 3.118-19.517 9.628-27.833 15.905-10.001 7.563-20.359 15.379-34.487 16.853a40.422 40.422 0 0 1-4.358.253Z"/><path d="M349.264 321.848c-18.696 0-43.245-11.123-63.33-20.224-7.706-3.497-14.97-6.783-21.054-9.121a4369.251 4369.251 0 0 1-43.708-16.853c-26.991-10.533-54.888-21.256-82.595-31.22-4.021-1.454-8.127-3.013-12.295-4.593-28.697-10.933-58.404-22.224-85.753-6.509l-1.032-1.833c28.213-16.221 59.73-4.213 87.543 6.32 4.21 1.58 8.232 3.118 12.253 4.571 27.728 9.965 55.646 20.772 82.637 31.241 14.316 5.541 29.117 11.271 43.708 16.853 6.316 2.381 13.516 5.667 21.243 9.185 21.791 9.859 48.908 22.162 67.373 19.718 14.316-1.875 27.37-15.652 40.002-28.987 14.443-15.252 28.107-29.661 43.856-28.229 10.758.969 21.054 9.354 31.77 25.638l-1.768 1.137c-10.254-15.694-20.128-23.762-30.192-24.689-14.738-1.348-28.065 12.64-42.108 27.597-12.885 13.587-26.191 27.659-41.244 29.618a38.769 38.769 0 0 1-5.306.38Z"/><path d="M323.873 274.007c-36.55 0-75.794-16.495-113.881-32.463-52.298-21.93-106.364-44.618-155.8-26.501l-.652-1.896c50.151-18.391 104.617 4.445 157.273 26.543 38.297 16.073 77.9 32.694 114.386 32.294 19.602-.232 37.476-12.134 54.741-23.636 25.601-17.063 52.087-34.717 82.594-10.828l-1.305 1.643c-29.307-22.941-53.982-6.488-80.131 10.934-17.538 11.67-35.666 23.762-55.899 23.994l-1.326-.084ZM260.227 210.914c-24.907 0-50.298-3.582-74.889-7.058-37.013-5.245-75.268-10.659-112.197-3.876l-.379-2.106c37.266-6.847 75.795-1.412 112.871 3.855 26.359 3.728 53.624 7.563 80.131 6.973 21.517-.464 43.308-3.413 64.383-6.32 33.876-4.572 68.91-9.29 103.775-3.961l-.316 2.107c-34.57-5.288-69.478-.59-103.164 3.96-21.054 2.844-42.992 5.794-64.636 6.32-1.853.085-3.726.106-5.579.106ZM96.006 187.425l-.21-2.107c21.896-2.275 44.55-4.655 65.583-13.461a162.927 162.927 0 0 0 19.222-10.133c9.348-5.477 18.948-11.144 30.233-13.587 32.992-7.142 68.784-.548 103.396 5.814 28.844 5.33 58.678 10.807 86.637 8.279l.19 2.107c-28.234 2.549-58.214-2.971-87.206-8.3-34.402-6.32-69.983-12.872-102.575-5.836-10.906 2.36-19.98 7.689-29.601 13.335a163.934 163.934 0 0 1-19.475 10.259c-21.328 8.932-44.129 11.313-66.194 13.63Z"/><path d="m119.965 175.48-.273-2.106c21.306-2.971 29.307-17.464 37.897-32.8 7.895-14.262 16.064-29.008 35.792-33.706 19.98-4.719 43.834-1.222 66.888 2.107 10.843 1.601 21.054 3.096 30.381 3.644 40.676 2.402 75.963 0 111.038-7.225l.422 2.106c-35.245 7.373-70.721 9.669-111.586 7.268-9.412-.548-19.686-2.107-30.571-3.666-22.864-3.349-46.529-6.804-66.109-2.106-18.759 4.424-26.339 18.117-34.36 32.631-8.506 15.105-17.159 30.736-39.519 33.853Z"/><path d="m137.756 159.007-1.411-1.559c8.19-7.415 10.97-16.137 13.938-25.385 2.211-6.952 4.506-14.156 9.327-20.645 12.843-17.295 28.928-21.508 50.235-25.595 16.064-3.075 31.812-5.793 47.034-8.426 56.425-9.775 109.712-18.96 166.748-43.586l.842 1.938c-57.267 24.668-110.681 33.916-167.232 43.712-15.201 2.633-30.949 5.372-46.992 8.427-20.844 3.981-36.55 8.089-48.951 24.773-4.589 6.194-6.842 13.23-9.011 20.013-2.842 9.143-5.853 18.538-14.527 26.333Z"/><path d="M467.84 511c-7.453-32.126-7.58-65.073-7.727-96.904 0-15.947-.126-32.463-1.116-48.747-.695-11.649-.484-24.331-.252-37.771.463-27.513.947-55.952-6.464-78.661-7.221-22.12-24.317-34.612-40.845-46.683-14.337-10.533-29.18-21.318-37.686-38.424-13.875-27.849-4.464-60.607 4.611-92.29 6.884-23.974 14-48.748 11.032-71.246L391.498 0c3.032 22.92-4.211 47.925-11.074 72.11-8.99 31.282-18.275 63.64-4.779 90.773 8.295 16.621 22.906 27.386 37.055 37.645 16.843 12.261 34.17 24.963 41.602 47.736 7.432 22.772 7.032 51.675 6.569 79.356-.232 13.398-.442 26.037.253 37.603.989 16.347 1.052 32.884 1.116 48.873.147 31.726.273 64.546 7.684 96.462l-2.084.442Z"/><path d="m423.964 492.63-2.106-.253c1.979-16.157 4.674-31.177 7.264-45.692 5.684-31.915 11.074-62.061 7.958-97.957-.821-9.627-.989-20.055-1.179-31.073-.421-26.248-.842-53.381-10.232-74.489-8.738-19.655-27.033-31.599-44.74-43.207-16.338-10.68-33.244-21.74-43.118-38.93-16.001-27.87-4.843-62.103 5.937-95.198 5.242-16.052 10.169-31.198 11.79-44.976l2.106.232c-1.643 13.988-6.611 29.24-11.875 45.397-10.632 32.653-21.643 66.422-6.106 93.513 9.601 16.726 26.297 27.66 42.445 38.214 17.959 11.734 36.529 23.868 45.519 44.112 9.537 21.488 9.979 48.831 10.401 75.29.189 10.997.357 21.361 1.179 30.925 3.137 36.192-2.274 66.464-8.001 98.526-2.59 14.494-5.263 29.409-7.242 45.566Z"/><path d="m383.435 473.229-2.001-.674c1.622-4.825 3.348-9.67 5.159-14.747 7.769-21.803 15.769-44.365 15.706-66.463a132.331 132.331 0 0 0-2.842-22.878 136.404 136.404 0 0 1-2.885-23.447c0-10.764 2-22.161 4.022-33.179 3.326-18.243 6.779-37.118.715-54.055-8.548-23.973-30.17-39.331-53.056-55.594-21.243-15.104-43.202-30.714-53.413-53.802-13.643-30.841-.864-56.752 12.632-84.265 3.853-7.815 7.832-15.884 11.201-24.142l1.958.801c-3.411 8.427-7.411 16.432-11.264 24.268-13.306 26.986-25.876 52.497-12.633 82.411 9.98 22.561 31.708 37.919 52.635 52.939 22.149 15.736 45.035 32.02 53.814 56.604 6.316 17.485 2.758 36.634-.631 55.151-2.001 10.934-4.064 22.225-3.98 32.8a133.438 133.438 0 0 0 2.864 23.068 135.538 135.538 0 0 1 2.863 23.172c0 22.478-8 45.208-15.811 67.18-1.727 5.203-3.432 10.027-5.053 14.852Z"/><path d="m337.032 454.943-2.106-.4a274.515 274.515 0 0 0 3.369-37.919c1.053-24.226 2.105-49.274 14.611-69.16a159.407 159.407 0 0 1 14.907-19.402c11.769-13.672 21.053-24.479 14.421-47.041-9.053-30.819-38.676-53.465-67.372-75.353-25.265-19.296-51.372-39.246-63.983-64.968-15.18-31.03 4.211-53.866 23.033-75.964 2.695-3.16 5.369-6.32 7.958-9.5l1.642 1.326c-2.61 3.181-5.305 6.32-8 9.543-18.338 21.572-37.308 43.881-22.738 73.732 12.379 25.279 38.297 45.081 63.372 64.23 28.991 22.035 58.909 44.892 68.152 76.491 6.969 23.657-2.653 34.843-14.843 49a155.794 155.794 0 0 0-14.738 19.17c-12.19 19.402-13.264 44.239-14.296 68.107a277.245 277.245 0 0 1-3.389 38.108Z"/><path d="M279.449 439.354h-2.105v-15.483c-.316-30.546-.506-49 34.612-65.958 5.243-2.549 10.885-4.824 16.338-7.015 16.086-6.468 31.286-12.64 36.234-24.753 2.906-7.141 2.106-15.821-2.695-26.564-14.738-33.706-45.266-59.807-74.72-85.044-24.444-20.94-49.709-42.617-65.941-68.528-25.497-40.721-6.906-54.772 23.896-77.944l3.158-2.38 1.284 1.684-3.221 2.528c-30.844 23.173-47.834 35.981-23.37 75.059 16.043 25.637 41.203 47.188 65.52 68.043 29.644 25.385 60.278 51.654 75.289 85.802 4.948 11.292 5.832 20.519 2.695 28.208-5.285 12.977-20.885 19.254-37.392 25.911-5.432 2.107-11.032 4.445-16.211 6.952-33.918 16.389-33.687 34.317-33.413 64.041.063 4.845.126 9.922.042 15.441Z"/><path d="m225.046 430.254-2.106-.127c2.611-43.775 17.791-55.572 54.425-73.836 4.211-2.107 8.569-4.087 12.758-6.004 16.191-7.415 31.476-14.409 35.792-26.775 2.632-7.521 1.137-16.663-4.59-27.955-8.421-16.726-30.444-38.467-53.687-61.492-40.74-40.362-86.89-86.097-81.247-123.552 2.337-15.463 13.558-28.524 33.349-38.867l.99 1.875c-19.454 10.153-30.002 22.35-32.255 37.308-5.495 36.381 40.276 81.736 80.637 121.741 23.369 23.172 45.434 44.997 54.087 62.039 6.001 11.818 7.538 21.509 4.716 29.598-4.611 13.208-20.296 20.392-36.907 27.997a341.566 341.566 0 0 0-12.633 5.983c-36.676 18.243-50.761 29.197-53.329 72.067Z"/><path d="m160.915 454.775-2.105-.38a278.581 278.581 0 0 1 46.319-111.502 227.008 227.008 0 0 1 14.737-18.096c14.022-16.263 28.529-33.074 25.265-55.614-3.579-24.88-21.054-48.705-38.108-71.731-29.012-39.351-58.951-80.051-13.811-123.847l1.453 1.517c-43.856 42.532-15.727 80.683 14.043 121.088 17.138 23.172 34.844 47.272 38.507 72.657 3.411 23.509-11.432 40.699-25.77 57.32a226.534 226.534 0 0 0-14.443 17.949 276.157 276.157 0 0 0-46.087 110.639Z"/><path d="m99.859 469.142-2.105-.211c1.326-12.787 2.421-25.89 3.473-38.551 3.011-35.96 6.127-73.141 14.738-108.68 6.316-26.48 16.843-41.626 29.118-59.153 5.158-7.416 10.527-15.084 15.875-24.184 14.443-24.374 10.421-50.791 6.168-78.766-4.084-26.712-8.274-54.351 4.211-81.252l1.916.885c-12.19 26.332-8.022 53.634-4 80.051 4.316 28.355 8.421 55.13-6.443 80.051-5.432 9.163-10.779 16.853-15.959 24.31C134.787 281 124.366 296 118.05 322.079c-8.548 35.391-11.664 72.489-14.738 108.364-1.137 12.787-2.232 25.89-3.453 38.699Z"/><path d="m58.72 419.994-2.106-.147c1.053-14.072.569-31.304 0-49.547-1.579-56.015-3.558-125.744 38.992-152.477 4.484-2.844 9.011-5.329 13.369-7.731 13.433-7.415 26.107-14.409 34.697-29.492 10.696-18.602 11.201-44.913 11.664-68.107.168-8.068.316-15.673.863-22.688l2.106.168c-.527 6.952-.695 14.536-.843 22.562-.463 23.447-.989 50.032-11.937 69.118-8.885 15.483-21.812 22.604-35.497 30.166-4.358 2.402-8.843 4.888-13.285 7.668-41.518 26.101-39.581 95.156-38.002 150.644.547 18.412 1.115 35.686-.022 49.863Z"/><path d="m28.086 361.599-2.105-.547c4.063-15.337 5.6-32.147 7.242-49.927 3.2-34.928 6.527-71.056 30.444-95.219 8.59-8.679 19.98-13.545 30.992-18.222 9.832-4.213 20.001-8.426 27.833-15.547 24.717-22.119 24.865-40.426 25.138-73.731h2.106c-.253 32.716-.421 52.476-25.833 75.227-8.106 7.247-18.423 11.65-28.423 15.905-10.822 4.613-22.023 9.374-30.318 17.759-23.39 23.636-26.675 59.385-29.855 93.933-1.473 17.169-3.094 34.844-7.221 50.369Z"/></g></svg>